PathFileType	4	(x/y/z)	S08_PSF_T04
DataRate	CameraRate	NumFrames	NumMarkers	Units	OrigDataRate	OrigDataStartFrame	OrigNumFrames
240	240	11	51	mm	240	53	420
Frame#	Time	Sternum			R.Acromium			L.Acromium			Top.Head			R.ASIS			L.ASIS			R.PSIS			L.PSIS			R.Great.Tro			L.Great.Tro			R.Iliac.Crest			L.Iliac.Crest			V.Sacral			R.Thigh.Upper.Post			R.Thigh.Lower.Ant			R.Thigh.Lower.Post			R.Thigh.Upper.Ant			R.Knee.Lat			R.Knee.Med			R.Shank.Upper.Post			R.Shank.Lower.Ant			R.Shank.Lower.Post			R.Shank.Upper.Ant			R.Ankle.Lat			R.Ankle.Med			R.Heel.Upper			R.Heel.Med			R.Heel.Lat			R.Toe.Lat			R.Toe.Med			R.Toe.Tip			L.Thigh.Upper.Post			L.Thigh.Lower.Ant			L.Thigh.Lower.Post			L.Thigh.Upper.Ant			L.Knee.Lat			L.Knee.Med			L.Shank.Upper.Post			L.Shank.Lower.Ant			L.Shank.Lower.Post			L.Shank.Upper.Ant			L.Ankle.Lat			L.Ankle.Med			L.Heel.Upper			L.Heel.Med			L.Heel.Lat			L.Toe.Lat			L.Toe.Med			L.Toe.Tip			Cervical.Spine			Back			
		X1	Y1	Z1	X2	Y2	Z2	X3	Y3	Z3	X4	Y4	Z4	X5	Y5	Z5	X6	Y6	Z6	X7	Y7	Z7	X8	Y8	Z8	X9	Y9	Z9	X10	Y10	Z10	X11	Y11	Z11	X12	Y12	Z12	X13	Y13	Z13	X14	Y14	Z14	X15	Y15	Z15	X16	Y16	Z16	X17	Y17	Z17	X18	Y18	Z18	X19	Y19	Z19	X20	Y20	Z20	X21	Y21	Z21	X22	Y22	Z22	X23	Y23	Z23	X24	Y24	Z24	X25	Y25	Z25	X26	Y26	Z26	X27	Y27	Z27	X28	Y28	Z28	X29	Y29	Z29	X30	Y30	Z30	X31	Y31	Z31	X32	Y32	Z32	X33	Y33	Z33	X34	Y34	Z34	X35	Y35	Z35	X36	Y36	Z36	X37	Y37	Z37	X38	Y38	Z38	X39	Y39	Z39	X40	Y40	Z40	X41	Y41	Z41	X42	Y42	Z42	X43	Y43	Z43	X44	Y44	Z44	X45	Y45	Z45	X46	Y46	Z46	X47	Y47	Z47	X48	Y48	Z48	X49	Y49	Z49	X50	Y50	Z50	X51	Y51	Z51	

53	0.21667	-1194.9	1232.2	331.16	-1315.9	1468.2	510.24	-1330.8	1495.7	174.6	-1315.9	1788.7	353.92	-1213.1	1015.1	439.05	-1209.9	1025.7	206.52	NaN	NaN	NaN	NaN	NaN	NaN	-1282.4	900.5	505.69	-1295.8	917.71	140.67	-1315	1081.6	487.47	-1307.7	1105.5	177.61	-1428.8	1000.3	313.83	-1273.9	701.09	495.98	-1180.6	612.25	481.45	-1258.6	613.33	480.88	-1195.2	705.37	493.65	-1211	512.77	475.43	-1218	511.99	341.24	-1380	431.52	476.59	-1380.5	342.2	455.03	NaN	NaN	NaN	-1323.8	391.35	465.63	-1565.8	279.76	430.87	-1527.9	257.2	355.8	-1609.4	299.91	377.13	-1622.8	275.98	350.01	-1632.2	286.81	409.76	-1563.8	126.12	464.48	-1535.5	114.29	353.77	-1466.6	56.453	391.17	-1275.2	707.75	158.95	-1178	631.71	186.97	-1247.1	623.09	179.46	-1203	714.01	160.87	-1213.3	523.64	204.69	-1221.9	527.08	328.79	-1268.5	341.74	201.93	-1201.3	257.33	232.16	-1273.7	269.81	219.3	-1203.3	330.41	213.59	-1258.5	99.781	241.98	-1236.9	106.53	331.88	-1309.5	73.918	289.16	-1297.9	40.567	319.85	-1299.9	48.809	256.13	-1123	41.242	230.26	-1109.7	42.926	345.22	-1043.7	63.233	299.98	-1395.9	1526.3	339.6	-1435.3	1241	348.68
54	0.22083	-1189.8	1232.8	330.98	-1310.7	1468.9	510.09	-1325.6	1496.5	174.53	-1310.5	1789.4	353.82	-1208.1	1016	438.89	-1205	1026.3	206.33	NaN	NaN	NaN	NaN	NaN	NaN	-1276.6	901.34	505.58	-1291.2	918.11	140.57	-1310	1082.3	487.25	-1303	1106	177.38	-1423.8	1000.9	313.75	-1265.7	701.99	496.01	-1171.7	614.12	481.27	-1249	614.36	480.86	-1187.2	707.09	493.44	-1201	514.32	475.29	-1208.4	513.45	341.01	-1369.4	432.16	476.27	-1369.3	343.02	454.94	NaN	NaN	NaN	-1313.3	392.34	465.45	-1554.6	279.42	430.61	-1516.5	257.01	355.69	-1598.5	298.3	376.98	-1611.8	273.96	349.85	-1621.6	285.13	409.52	-1550.1	126.15	465.48	-1521.6	114.02	354.77	-1454.1	57.13	392.27	-1271.7	708.2	158.78	-1175	631.53	186.94	-1244	623.36	179.33	-1199.6	713.99	160.89	-1211	523.6	204.64	-1219.6	527.11	328.72	-1267.2	341.96	201.87	-1200.4	257.25	232.15	-1272.6	270.03	219.27	-1202.1	330.28	213.53	-1258.3	99.945	242.07	-1236.7	106.58	331.83	-1309.4	74.087	289.15	-1297.9	40.69	319.81	-1299.8	48.93	256.1	-1122.9	41.16	230.19	-1109.6	42.867	345.45	-1043.7	62.921	299.96	-1390.6	1526.9	339.46	-1430.3	1241.7	348.44
55	0.225	-1184.7	1233.4	330.8	-1305.4	1469.5	509.93	-1320.4	1497.3	174.46	-1305.1	1790	353.72	-1203	1016.8	438.72	-1200.1	1026.8	206.14	NaN	NaN	NaN	NaN	NaN	NaN	-1271	902.18	505.49	-1286.6	918.49	140.48	-1305	1083.1	487.05	-1298.3	1106.6	177.16	-1418.9	1001.5	313.68	-1257.5	702.91	496.05	-1162.9	616.01	481.05	-1239.4	615.4	480.86	-1179.3	708.83	493.23	-1191.1	515.91	475.14	-1198.7	514.96	340.76	-1358.8	432.7	475.94	-1358.1	343.76	454.86	NaN	NaN	NaN	-1302.8	393.29	465.27	-1543.3	278.79	430.41	-1505	256.6	355.6	-1587.5	296.39	376.89	-1600.7	271.63	349.76	-1610.8	283.1	409.36	-1536.1	125.93	466.45	-1507.5	113.59	355.71	-1441.3	57.834	393.4	-1268.2	708.64	158.6	-1172.1	631.36	186.92	-1241	623.62	179.19	-1196.1	713.97	160.92	-1208.7	523.57	204.58	-1217.2	527.14	328.66	-1265.9	342.17	201.81	-1199.6	257.17	232.16	-1271.5	270.23	219.23	-1200.8	330.16	213.47	-1258	100.1	242.18	-1236.5	106.6	331.76	-1309.3	74.266	289.16	-1297.9	40.818	319.78	-1299.7	49.054	256.07	-1122.8	41.078	230.12	-1109.6	42.798	345.69	-1043.6	62.593	299.95	-1385.2	1527.6	339.31	-1425.3	1242.5	348.19
56	0.22917	-1179.6	1233.9	330.62	-1300.2	1470.1	509.77	-1315.3	1498	174.39	-1299.7	1790.6	353.64	-1197.9	1017.7	438.54	-1195.1	1027.3	205.94	NaN	NaN	NaN	NaN	NaN	NaN	-1265.3	903.01	505.42	-1282.1	918.86	140.39	-1300	1083.8	486.86	-1293.7	1107.1	176.94	-1414	1002.1	313.63	-1249.4	703.84	496.12	-1154.1	617.91	480.81	-1229.9	616.47	480.88	-1171.4	710.58	493.02	-1181.3	517.52	474.97	-1189.2	516.5	340.52	-1348.1	433.13	475.59	-1346.9	344.4	454.78	NaN	NaN	NaN	-1292.3	394.19	465.08	-1531.8	277.89	430.26	-1493.4	255.96	355.53	-1576.5	294.19	376.86	-1589.5	269.02	349.74	-1599.9	280.76	409.28	-1521.8	125.49	467.38	-1493.1	113	356.58	-1428.2	58.561	394.56	-1264.6	709.06	158.42	-1169.1	631.2	186.92	-1237.9	623.87	179.05	-1192.7	713.95	160.95	-1206.5	523.53	204.54	-1214.9	527.15	328.63	-1264.7	342.37	201.75	-1198.7	257.1	232.18	-1270.2	270.39	219.16	-1199.5	330.06	213.44	-1257.6	100.25	242.29	-1236.4	106.61	331.66	-1309.2	74.453	289.17	-1297.8	40.952	319.75	-1299.6	49.182	256.05	-1122.7	40.996	230.06	-1109.5	42.715	345.93	-1043.5	62.247	299.94	-1379.9	1528.2	339.16	-1420.3	1243.1	347.95
57	0.23333	-1174.6	1234.5	330.44	-1294.9	1470.7	509.61	-1310.1	1498.7	174.33	-1294.3	1791.1	353.57	-1192.9	1018.5	438.36	-1190.1	1027.8	205.73	NaN	NaN	NaN	NaN	NaN	NaN	-1259.7	903.84	505.37	-1277.5	919.21	140.3	-1295.1	1084.6	486.68	-1289	1107.6	176.72	-1409.1	1002.6	313.6	-1241.4	704.78	496.2	-1145.4	619.82	480.53	-1220.6	617.55	480.92	-1163.6	712.34	492.81	-1171.5	519.16	474.79	-1179.7	518.08	340.27	-1337.6	433.46	475.25	-1335.6	344.95	454.71	NaN	NaN	NaN	-1281.9	395.03	464.89	-1520.1	276.71	430.16	-1481.6	255.12	355.49	-1565.4	291.7	376.89	-1578.2	266.13	349.81	-1588.9	278.1	409.3	-1507.3	124.83	468.27	-1478.5	112.27	357.38	-1414.8	59.307	395.74	-1261.1	709.47	158.24	-1166.1	631.03	186.94	-1234.9	624.12	178.91	-1189.2	713.94	160.98	-1204.3	523.49	204.5	-1212.6	527.15	328.62	-1263.4	342.57	201.7	-1197.8	257.03	232.2	-1268.9	270.52	219.08	-1198.3	329.97	213.41	-1257.3	100.4	242.41	-1236.2	106.61	331.55	-1309.1	74.648	289.2	-1297.8	41.091	319.73	-1299.6	49.313	256.04	-1122.6	40.917	230	-1109.5	42.616	346.17	-1043.4	61.885	299.93	-1374.5	1528.7	339.02	-1415.3	1243.8	347.72
58	0.2375	-1169.6	1235	330.26	-1289.6	1471.3	509.46	-1304.9	1499.4	174.26	-1289	1791.7	353.51	-1187.8	1019.4	438.17	-1185.1	1028.3	205.5	NaN	NaN	NaN	NaN	NaN	NaN	-1254.1	904.66	505.33	-1273	919.54	140.22	-1290.1	1085.3	486.51	-1284.2	1108.1	176.52	-1404.3	1003.1	313.59	-1233.4	705.73	496.3	-1136.8	621.72	480.23	-1211.3	618.66	480.97	-1155.8	714.1	492.59	-1161.9	520.81	474.6	-1170.3	519.68	340.01	-1327	433.69	474.9	-1324.3	345.39	454.66	NaN	NaN	NaN	-1271.4	395.81	464.69	-1508.3	275.27	430.12	-1469.8	254.05	355.47	-1554.3	288.94	376.98	-1566.7	262.96	349.96	-1577.8	275.13	409.41	-1492.5	123.96	469.11	-1463.8	111.4	358.11	-1401	60.069	396.95	-1257.6	709.86	158.08	-1163.1	630.87	186.99	-1231.8	624.36	178.78	-1185.7	713.93	161.01	-1202.1	523.44	204.47	-1210.4	527.13	328.63	-1262.2	342.77	201.66	-1197	256.96	232.24	-1267.4	270.6	218.98	-1197	329.89	213.41	-1256.9	100.54	242.53	-1236	106.58	331.42	-1309	74.849	289.23	-1297.7	41.235	319.72	-1299.5	49.446	256.05	-1122.5	40.842	229.95	-1109.4	42.5	346.39	-1043.3	61.508	299.93	-1369.1	1529.2	338.87	-1410.3	1244.5	347.49
59	0.24167	-1164.6	1235.5	330.08	-1284.3	1471.8	509.3	-1299.7	1500.1	174.2	-1283.6	1792.2	353.46	-1182.7	1020.2	437.97	-1180.1	1028.8	205.27	NaN	NaN	NaN	NaN	NaN	NaN	-1248.5	905.47	505.3	-1268.5	919.85	140.14	-1285.1	1085.9	486.34	-1279.5	1108.5	176.32	-1399.4	1003.6	313.6	-1225.5	706.68	496.41	-1128.3	623.62	479.91	-1202.2	619.78	481.04	-1148.1	715.85	492.37	-1152.3	522.48	474.38	-1161	521.31	339.75	-1316.4	433.81	474.56	-1313.1	345.71	454.62	NaN	NaN	NaN	-1260.9	396.54	464.49	-1496.4	273.57	430.14	-1457.8	252.79	355.49	-1543.1	285.91	377.13	-1555.2	259.54	350.2	-1566.5	271.87	409.61	-1477.5	122.9	469.91	-1448.8	110.4	358.78	-1387	60.84	398.17	-1254.1	710.23	157.93	-1160.1	630.7	187.05	-1228.7	624.58	178.65	-1182.2	713.91	161.04	-1199.9	523.38	204.45	-1208.2	527.11	328.67	-1261	342.96	201.64	-1196.2	256.89	232.3	-1265.8	270.63	218.85	-1195.8	329.83	213.42	-1256.6	100.68	242.66	-1235.9	106.55	331.28	-1308.9	75.053	289.28	-1297.7	41.384	319.71	-1299.4	49.58	256.06	-1122.4	40.77	229.9	-1109.3	42.366	346.6	-1043.2	61.119	299.94	-1363.6	1529.7	338.72	-1405.4	1245.1	347.26
60	0.24583	-1159.7	1236	329.9	-1279	1472.3	509.14	-1294.5	1500.7	174.14	-1278.2	1792.6	353.41	-1177.7	1020.9	437.77	-1175.1	1029.3	205.02	NaN	NaN	NaN	NaN	NaN	NaN	-1242.9	906.26	505.28	-1264.1	920.13	140.07	-1280.1	1086.6	486.19	-1274.8	1108.9	176.13	-1394.5	1004.1	313.63	-1217.6	707.62	496.54	-1119.8	625.51	479.56	-1193.2	620.91	481.11	-1140.4	717.59	492.14	-1142.8	524.14	474.14	-1151.7	522.95	339.49	-1305.9	433.82	474.23	-1301.8	345.91	454.6	NaN	NaN	NaN	-1250.4	397.2	464.29	-1484.4	271.61	430.21	-1445.7	251.32	355.53	-1531.9	282.62	377.34	-1543.4	255.86	350.51	-1555	268.32	409.9	-1462.3	121.66	470.66	-1433.6	109.29	359.38	-1372.6	61.616	399.4	-1250.6	710.59	157.8	-1157.1	630.53	187.13	-1225.7	624.8	178.54	-1178.6	713.9	161.07	-1197.7	523.32	204.45	-1206	527.08	328.73	-1259.8	343.15	201.63	-1195.4	256.83	232.36	-1264.1	270.61	218.7	-1194.5	329.77	213.46	-1256.2	100.81	242.79	-1235.7	106.5	331.14	-1308.8	75.26	289.34	-1297.6	41.535	319.71	-1299.4	49.716	256.08	-1122.3	40.704	229.86	-1109.2	42.216	346.79	-1043.1	60.719	299.95	-1358.1	1530.2	338.56	-1400.4	1245.7	347.04
61	0.25	-1154.7	1236.5	329.73	-1273.7	1472.8	508.98	-1289.4	1501.3	174.08	-1272.8	1793.1	353.37	-1172.7	1021.7	437.56	-1170.2	1029.7	204.77	NaN	NaN	NaN	NaN	NaN	NaN	-1237.3	907.03	505.27	-1259.6	920.38	140.01	-1275.1	1087.2	486.04	-1270	1109.3	175.95	-1389.7	1004.5	313.67	-1209.8	708.55	496.68	-1111.4	627.39	479.19	-1184.3	622.05	481.2	-1132.8	719.32	491.91	-1133.4	525.81	473.88	-1142.6	524.61	339.23	-1295.4	433.72	473.91	-1290.7	345.98	454.61	NaN	NaN	NaN	-1239.9	397.8	464.09	-1472.2	269.42	430.34	-1433.5	249.66	355.61	-1520.5	279.09	377.6	-1531.6	251.96	350.89	-1543.3	264.5	410.28	-1447	120.25	471.35	-1418.3	108.06	359.91	-1357.9	62.389	400.63	-1247.2	710.92	157.69	-1154.1	630.35	187.23	-1222.7	625	178.44	-1175	713.88	161.1	-1195.6	523.25	204.47	-1203.9	527.04	328.81	-1258.6	343.34	201.64	-1194.6	256.76	232.44	-1262.3	270.54	218.52	-1193.3	329.72	213.52	-1255.9	100.95	242.94	-1235.6	106.45	331	-1308.7	75.467	289.4	-1297.6	41.689	319.72	-1299.3	49.852	256.11	-1122.2	40.644	229.83	-1109.1	42.053	346.96	-1042.9	60.314	299.96	-1352.5	1530.6	338.41	-1395.4	1246.2	346.82
62	0.25417	-1149.8	1236.9	329.55	-1268.3	1473.3	508.82	-1284.2	1501.9	174.02	-1267.4	1793.5	353.33	-1167.7	1022.4	437.35	-1165.2	1030.1	204.5	NaN	NaN	NaN	NaN	NaN	NaN	-1231.8	907.78	505.27	-1255.1	920.6	139.96	-1270.2	1087.7	485.9	-1265.3	1109.6	175.79	-1384.9	1004.9	313.73	-1202.1	709.48	496.82	-1103.1	629.25	478.81	-1175.6	623.2	481.29	-1125.2	721.02	491.67	-1124	527.48	473.59	-1133.6	526.28	338.97	-1284.9	433.52	473.61	-1279.5	345.91	454.64	NaN	NaN	NaN	-1229.3	398.34	463.89	-1459.9	266.98	430.51	-1421.1	247.81	355.71	-1509.1	275.31	377.93	-1519.5	247.82	351.33	-1531.5	260.4	410.74	-1431.4	118.68	472	-1402.8	106.73	360.39	-1343	63.151	401.84	-1243.7	711.23	157.61	-1151.1	630.17	187.35	-1219.7	625.2	178.37	-1171.4	713.86	161.11	-1193.5	523.18	204.5	-1201.8	527	328.91	-1257.4	343.53	201.67	-1193.9	256.7	232.54	-1260.3	270.4	218.32	-1192.1	329.67	213.59	-1255.6	101.08	243.09	-1235.4	106.38	330.86	-1308.7	75.673	289.48	-1297.5	41.843	319.74	-1299.2	49.988	256.15	-1122.1	40.59	229.81	-1109	41.88	347.11	-1042.8	59.906	299.98	-1347	1531	338.26	-1390.5	1246.8	346.6
63	0.25833	-1144.8	1237.3	329.37	-1262.9	1473.7	508.66	-1279	1502.5	173.96	-1262	1793.9	353.3	-1162.7	1023.1	437.13	-1160.3	1030.5	204.23	NaN	NaN	NaN	NaN	NaN	NaN	-1226.2	908.5	505.28	-1250.6	920.8	139.92	-1265.2	1088.2	485.77	-1260.6	1109.9	175.64	-1380.1	1005.2	313.81	-1194.4	710.39	496.97	-1094.8	631.1	478.4	-1167	624.36	481.37	-1117.7	722.71	491.43	-1114.8	529.13	473.28	-1124.7	527.95	338.7	-1274.5	433.21	473.32	-1268.4	345.7	454.7	NaN	NaN	NaN	-1218.8	398.81	463.7	-1447.4	264.32	430.73	-1408.6	245.79	355.84	-1497.5	271.3	378.31	-1507.4	243.48	351.84	-1519.4	256.06	411.27	-1415.6	116.97	472.6	-1387.1	105.31	360.82	-1327.7	63.894	403.03	-1240.4	711.53	157.56	-1148.2	629.98	187.49	-1216.7	625.37	178.31	-1167.8	713.85	161.11	-1191.4	523.1	204.54	-1199.7	526.94	329.02	-1256.2	343.72	201.72	-1193.2	256.64	232.64	-1258.1	270.21	218.08	-1190.9	329.62	213.69	-1255.3	101.22	243.26	-1235.3	106.32	330.73	-1308.6	75.878	289.56	-1297.5	41.997	319.76	-1299.2	50.124	256.2	-1122	40.542	229.8	-1108.9	41.702	347.23	-1042.7	59.5	300	-1341.3	1531.3	338.1	-1385.5	1247.3	346.39
